<svg xmlns="http://www.w3.org/2000/svg" xmlns:xlink="http://www.w3.org/1999/xlink" width="26.706" height="21.958" viewBox="0 0 26.706 21.958">
  <defs>
    <clipPath id="clip-path">
      <rect id="Rectangle_2961" data-name="Rectangle 2961" width="26.706" height="21.958" transform="translate(0 0)" fill="none"/>
    </clipPath>
  </defs>
  <g id="Group_41559" data-name="Group 41559" transform="translate(0 0)">
    <g id="Group_41558" data-name="Group 41558" clip-path="url(#clip-path)">
      <path id="Path_86655" data-name="Path 86655" d="M15.027,4.583A5.913,5.913,0,0,1,10.75,2.8C8.608.969,6.363-.369,3.506,1.5c.908,1.258.129,2.7-1.628,2.88-.5.049-1.024-.313-1.178.556-.112.62-.293,1.068.507,1.39.368.151.621.707.82,1.127" fill="none" stroke="#ffc20e" stroke-width="1.2"/>
      <path id="Path_86656" data-name="Path 86656" d="M2.027,7.455c1.225,2.584,3.882,4.4,4.047,7.571a1.613,1.613,0,0,0,.872,1.064c.854.393,1.114,1.161,1.543,1.865.634,1.041,1.378,2.015,2.52,3.661-.263-2.221.842-1.833,1.678-1.815a7.865,7.865,0,0,1,2.457.273c.648.238,1,.186,1.307-.362a3.518,3.518,0,0,1,3.183-1.65,18.824,18.824,0,0,0,4.976-1.283c1.44-.463,1.407-1.833,1.491-2.921s-1.081-.964-1.754-1.025c-2.749-.259-3.819-2.209-4.8-4.387-.729-1.617-2.487-3.947-4.52-3.863" fill="none" stroke="#0054a6" stroke-width="1.2"/>
    </g>
  </g>
</svg>
