<svg xmlns="http://www.w3.org/2000/svg" width="24.823" height="21.374" viewBox="0 0 24.823 21.374">
  <g id="ecommerce" transform="translate(0.15 -35.851)">
    <path id="Path_86557" data-name="Path 86557" d="M.479,36.959h4.07L7.328,49.464v2.869a2.395,2.395,0,1,0,2.826,2.826h1.772a.479.479,0,1,0,0-.958H10.153a2.4,2.4,0,0,0-1.868-1.868V49.891H22.606a.479.479,0,0,0,.472-.4l1.437-8.621a.479.479,0,0,0-.472-.558H6.275L5.4,36.376A.479.479,0,0,0,4.933,36H.479a.479.479,0,0,0,0,.958ZM17.673,45.58v3.353H12.74V45.58Zm-4.933-.958V41.269h4.933v3.353Zm-.958,4.311H8.191L7.446,45.58h4.336ZM9.244,54.68a1.437,1.437,0,1,1-1.437-1.437A1.438,1.438,0,0,1,9.244,54.68ZM22.2,48.933h-3.57V45.58h4.128Zm.718-4.311H18.631V41.269h4.847ZM11.782,41.269v3.353H7.233l-.745-3.353Z" transform="translate(0 0)" fill="#0054a6" stroke="#0054a6" stroke-width="0.3"/>
    <path id="Path_86558" data-name="Path 86558" d="M334.126,376a2.4,2.4,0,0,0-2.347,1.916h-2.3a.479.479,0,0,0,0,.958h2.3A2.395,2.395,0,1,0,334.126,376Zm0,3.832a1.437,1.437,0,1,1,1.437-1.437A1.438,1.438,0,0,1,334.126,379.833Z" transform="translate(-313.243 -323.716)" fill="#ffc20e" stroke="#ffc20e" stroke-width="0.3"/>
    <circle id="Ellipse_2497" data-name="Ellipse 2497" cx="0.401" cy="0.401" r="0.401" transform="translate(13.864 54.554)" fill="#ffc20e" stroke="#ffc20e" stroke-width="0.3"/>
  </g>
</svg>
