<svg xmlns="http://www.w3.org/2000/svg" width="29.752" height="45.68" viewBox="0 0 29.752 45.68"><defs><style>.a{fill:#0054a6;stroke:#0054a6;}.a,.b{stroke-width:0.4px;}.b{fill:#ffc20e;stroke:#ffc20e;}</style></defs><g transform="translate(0.204 0.2)"><path class="a" d="M115.744,18.908a1.234,1.234,0,0,1-.119-.639l.638-7.707A2.854,2.854,0,0,0,113.031,7.5a5.35,5.35,0,0,0-1.887.634c-.046-.063-.093-.125-.144-.185a3.392,3.392,0,0,0-4.773-.421l-5.187,4.341V10.9a.356.356,0,0,1,.062-.2l1.076-1.574a.662.662,0,1,0-1.094-.747L100.01,9.947a1.676,1.676,0,0,0-.293.949v2.08L95.589,16.43V10.192A3.517,3.517,0,0,1,96.2,8.2l3.788-5.544A2.064,2.064,0,0,1,103.4,4.984L102.706,6a.662.662,0,1,0,1.094.747l.7-1.017a3.388,3.388,0,0,0-5.6-3.823L95.111,7.452a4.837,4.837,0,0,0-.847,2.74v7.347L92.278,19.2a5.774,5.774,0,0,0-2.047,4.872l.422,5.361a.662.662,0,0,0,.66.61l.053,0a.662.662,0,0,0,.608-.712l-.422-5.361a4.447,4.447,0,0,1,1.577-3.753l13.95-11.675a2.064,2.064,0,1,1,2.651,3.164l-7.262,6.085a2.978,2.978,0,0,0-1.257.652l-3.549,3.089a.662.662,0,1,0,.87,1l3.549-3.089a1.632,1.632,0,0,1,2.142-.012L109.59,24a2.061,2.061,0,0,1-.754,3.55l-3.756-3.195a2.949,2.949,0,0,0-3.869.022l-3.549,3.089a.662.662,0,0,0,.87,1l3.549-3.089a1.632,1.632,0,0,1,2.142-.012l5.368,4.566a2.064,2.064,0,1,1-2.674,3.144l-3.323-2.826a.662.662,0,0,0-.9.036l-.986.986a.662.662,0,1,0,.937.937l.554-.554,2.857,2.431a3.363,3.363,0,0,0,2.19.808c.092,0,.185,0,.278-.011a3.388,3.388,0,0,0,1.923-5.958l-.494-.42a3.387,3.387,0,0,0,.494-5.51l-2.38-2.024,1.438-7.342,1.074-.9A3.392,3.392,0,0,0,111.7,9.343a4.016,4.016,0,0,1,1.51-.531,1.529,1.529,0,0,1,1.732,1.641l-.638,7.707a2.56,2.56,0,0,0,.246,1.325l1.179,2.439a11.5,11.5,0,0,1,.138,9.737l-.758,1.689a.662.662,0,1,0,1.208.543l.758-1.689a12.819,12.819,0,0,0-.154-10.856Zm-8.833,1.07-1.831-1.558a3,3,0,0,0-.746-.466l3.557-2.981Z" transform="translate(-90.213 -0.392)"/><path class="a" d="M341.751,398.132a.662.662,0,0,0-.876.333l-1.7,3.777a.662.662,0,0,0-.058.271v5.024a.662.662,0,0,0,1.325,0v-4.882l1.638-3.648A.662.662,0,0,0,341.751,398.132Z" transform="translate(-317.14 -362.92)"/><path class="b" d="M318.52,4.122a.662.662,0,0,0,.662-.662V.662a.662.662,0,1,0-1.325,0v2.8A.662.662,0,0,0,318.52,4.122Z" transform="translate(-297.755)"/><path class="b" d="M353.865,16.092a.662.662,0,0,0,.9-.256l1.361-2.444a.662.662,0,0,0-1.157-.645l-1.361,2.444A.662.662,0,0,0,353.865,16.092Z" transform="translate(-330.272 -11.312)"/><path class="b" d="M384.2,48.416a.662.662,0,0,0-.912-.214l-2.378,1.473a.662.662,0,1,0,.7,1.126l2.378-1.473A.662.662,0,0,0,384.2,48.416Z" transform="translate(-354.95 -43.855)"/><path class="a" d="M101.083,357.876a9.181,9.181,0,0,1-1.918-4.53.662.662,0,1,0-1.314.171,10.5,10.5,0,0,0,2.2,5.183l2.733,3.434v4.056a.662.662,0,1,0,1.325,0V361.9a.663.663,0,0,0-.144-.412Z" transform="translate(-97.171 -321.617)"/></g></svg>