<svg xmlns="http://www.w3.org/2000/svg" width="38.375" height="20.865" viewBox="0 0 38.375 20.865">
  <g id="delivery-truck" transform="translate(0.191 -11.205)">
    <path id="Path_86562" data-name="Path 86562" d="M40.369,35.6a3.27,3.27,0,1,1,3.268-3.27A3.27,3.27,0,0,1,40.369,35.6Zm0-5.348a2.077,2.077,0,1,0,2.075,2.077A2.077,2.077,0,0,0,40.369,30.257Z" transform="translate(-7.611 -3.635)" fill="#fff" stroke="#fff" stroke-width="0.2"/>
    <path id="Path_86563" data-name="Path 86563" d="M18.7,35.6a3.27,3.27,0,1,1,3.267-3.27A3.27,3.27,0,0,1,18.7,35.6Zm0-5.348a2.077,2.077,0,1,0,2.074,2.077A2.077,2.077,0,0,0,18.7,30.257Z" transform="translate(-3.176 -3.635)" fill="#fff" stroke="#fff" stroke-width="0.2"/>
    <path id="Path_86564" data-name="Path 86564" d="M44.154,30.652H42.523a.6.6,0,1,1,0-1.193h1.463V26.3a2.513,2.513,0,0,0-.318-1.222l-3.229-5.789a.318.318,0,0,0-.278-.163h-4.4V29.461h1.42a.6.6,0,1,1,0,1.193H35.163a.6.6,0,0,1-.6-.6V18.525a.6.6,0,0,1,.6-.6h5a1.511,1.511,0,0,1,1.32.775l3.228,5.79a3.708,3.708,0,0,1,.468,1.8v3.332A1.025,1.025,0,0,1,44.154,30.652Z" transform="translate(-7.094 -1.356)" fill="#fff" stroke="#fff" stroke-width="0.2"/>
    <path id="Path_86565" data-name="Path 86565" d="M14.558,32.438H8.838a.6.6,0,0,1-.6-.6V27.254a.6.6,0,0,1,1.193,0v3.991h5.123a.6.6,0,1,1,0,1.193Z" transform="translate(-1.706 -3.142)" fill="#fff" stroke="#fff" stroke-width="0.2"/>
    <path id="Path_86566" data-name="Path 86566" d="M8.838,23.409a.6.6,0,0,1-.6-.6V18.807a.6.6,0,0,1,1.193,0v4.008A.6.6,0,0,1,8.838,23.409Z" transform="translate(-1.706 -1.414)" fill="#fff" stroke="#fff" stroke-width="0.2"/>
    <path id="Path_86567" data-name="Path 86567" d="M29.775,29.3H19.9a.6.6,0,1,1,0-1.193h9.279V12.5H9.435v2.457a.6.6,0,0,1-1.193,0V12.388a1.085,1.085,0,0,1,1.084-1.083H29.289a1.085,1.085,0,0,1,1.083,1.083V28.7A.6.6,0,0,1,29.775,29.3Z" transform="translate(-1.706)" fill="#fff" stroke="#fff" stroke-width="0.2"/>
    <path id="Path_86568" data-name="Path 86568" d="M9.855,27.851H2.284a.6.6,0,1,1,0-1.193H9.855a.6.6,0,1,1,0,1.193Z" transform="translate(-0.364 -3.142)" fill="#fff" stroke="#fff" stroke-width="0.2"/>
    <path id="Path_86569" data-name="Path 86569" d="M16.67,24.44H6.105a.6.6,0,1,1,0-1.193H16.67a.6.6,0,0,1,0,1.193Z" transform="translate(-1.146 -2.444)" fill="#fff" stroke="#fff" stroke-width="0.2"/>
    <path id="Path_86570" data-name="Path 86570" d="M4.631,20.48H.505a.6.6,0,1,1,0-1.193H4.631a.6.6,0,1,1,0,1.193Z" transform="translate(0 -1.634)" fill="#fff" stroke="#fff" stroke-width="0.2"/>
    <path id="Path_86571" data-name="Path 86571" d="M12.135,16.337H4.853a.6.6,0,1,1,0-1.193h7.282a.6.6,0,1,1,0,1.193Z" transform="translate(-0.89 -0.786)" fill="#fff" stroke="#fff" stroke-width="0.2"/>
  </g>
</svg>
