<svg xmlns="http://www.w3.org/2000/svg" xmlns:xlink="http://www.w3.org/1999/xlink" width="45.28" height="45.28" viewBox="0 0 45.28 45.28"><defs><style>.a,.d,.e{fill:none;}.b{clip-path:url(#a);}.c{fill:#0054a6;}.d{stroke:#0054a6;stroke-width:0.3px;}.e{stroke:#ffc20e;stroke-miterlimit:10;}</style><clipPath id="a"><rect class="a" width="45.28" height="45.28"/></clipPath></defs><g transform="translate(0 0)"><g class="b" transform="translate(0 0)"><path class="c" d="M2.586,22.585A19.435,19.435,0,0,1,17.032,3.805a.7.7,0,1,1,.363,1.354,18.027,18.027,0,0,0-6.866,31.317.7.7,0,0,1-.893,1.081A19.374,19.374,0,0,1,2.586,22.585m38.85,0A19.423,19.423,0,0,0,23.929,3.255L26.3,1.4A.7.7,0,0,0,25.434.3L21.581,3.307a.7.7,0,0,0-.12.984.676.676,0,0,0,.12.122l3.854,3.011A.7.7,0,0,0,26.3,6.318L24.225,4.7A18.023,18.023,0,0,1,22.013,40.6H.85a.7.7,0,0,0,0,1.4H22.013A19.427,19.427,0,0,0,41.434,22.586ZM44.75,40.757,40.9,37.747a.7.7,0,1,0-.863,1.1l2.249,1.756h-7.7a.7.7,0,1,0,0,1.4h7.7l-2.249,1.756a.7.7,0,0,0,.863,1.105l3.854-3.01a.7.7,0,0,0,.122-.984.732.732,0,0,0-.122-.122" transform="translate(0.055 0.055)"/><path class="d" d="M2.586,22.585A19.435,19.435,0,0,1,17.032,3.805a.7.7,0,1,1,.363,1.354,18.027,18.027,0,0,0-6.866,31.317.7.7,0,0,1-.893,1.081A19.374,19.374,0,0,1,2.586,22.585Zm38.85,0A19.423,19.423,0,0,0,23.929,3.255L26.3,1.4A.7.7,0,0,0,25.434.3L21.581,3.307a.7.7,0,0,0-.12.984.676.676,0,0,0,.12.122l3.854,3.011A.7.7,0,0,0,26.3,6.318L24.225,4.7A18.023,18.023,0,0,1,22.013,40.6H.85a.7.7,0,0,0,0,1.4H22.013A19.427,19.427,0,0,0,41.434,22.586ZM44.75,40.757,40.9,37.747a.7.7,0,1,0-.863,1.1l2.249,1.756h-7.7a.7.7,0,1,0,0,1.4h7.7l-2.249,1.756a.7.7,0,0,0,.863,1.105l3.854-3.01a.7.7,0,0,0,.122-.984A.732.732,0,0,0,44.75,40.757Z" transform="translate(0.055 0.055)"/><g transform="translate(1.027 1.176)"><path class="e" d="M7.757,13.47l9.834-5.677a.639.639,0,0,1,.64,0l9.832,5.677a.635.635,0,0,1,.32.553V25.38a.635.635,0,0,1-.32.553L18.231,31.61a.639.639,0,0,1-.64,0L7.757,25.933a.638.638,0,0,1-.32-.553V14.024A.638.638,0,0,1,7.757,13.47Z" transform="translate(2.736 2.836)"/><path class="e" d="M8.463,23.547l8.558,4.944V18.606L8.463,13.662Z" transform="translate(2.989 4.3)"/><path class="e" d="M24.918,23.546V13.665L16.36,18.609V28.49Z" transform="translate(4.931 4.301)"/><path class="e" d="M8.975,13.753,17.533,18.7l8.558-4.944L17.533,8.809Z" transform="translate(3.115 3.107)"/></g></g></g></svg>