<svg xmlns="http://www.w3.org/2000/svg" xmlns:xlink="http://www.w3.org/1999/xlink" width="74.668" height="22.412" viewBox="0 0 74.668 22.412">
  <defs>
    <clipPath id="clip-path">
      <rect id="Rectangle_2932" data-name="Rectangle 2932" width="74.668" height="22.412" fill="none"/>
    </clipPath>
  </defs>
  <g id="Group_41526" data-name="Group 41526" transform="translate(0 0)">
    <g id="Group_41525" data-name="Group 41525" transform="translate(0 0)" clip-path="url(#clip-path)">
      <path id="Path_86639" data-name="Path 86639" d="M16.321,7.307H9.754a.825.825,0,0,1-.872-.876.824.824,0,0,1,.872-.874h6.567a.826.826,0,0,1,.874.874.827.827,0,0,1-.874.876m4.816,0H19.909a.827.827,0,0,1-.874-.876.826.826,0,0,1,.874-.874h1.228a.827.827,0,0,1,.874.874.828.828,0,0,1-.874.876" transform="translate(10.292 6.439)" fill="#ffc20e"/>
      <path id="Path_86640" data-name="Path 86640" d="M73.625,13.92l-.35-.35c-2.452-2.539-7.791-4.29-11.293-4.378H18.648A23.1,23.1,0,0,1,7.7.352.8.8,0,0,0,7.005,0H.876a.781.781,0,0,0-.7.438,1.035,1.035,0,0,0-.086.876L3.94,9.281a.841.841,0,0,0-.613.788v1.4H2.278A2.261,2.261,0,0,0,0,13.745,2.208,2.208,0,0,0,2.278,16.02H4.115a64.09,64.09,0,0,0,24.951,4.991H42.634a3.656,3.656,0,0,0,2.8,1.4h8.493a.827.827,0,0,0,.874-.876v-.525H69.161a6.383,6.383,0,0,0,4.639-2.1,3.752,3.752,0,0,0-.175-4.991M6.479,1.839a25.451,25.451,0,0,0,8.143,7.441H5.779L2.189,1.839ZM1.664,13.745a.5.5,0,0,1,.525-.525h8.842a.525.525,0,0,1,0,1.049H2.278c-.352-.086-.613-.261-.613-.525m51.213,6.828H45.261a1.838,1.838,0,1,1,0-3.676h7.616Zm19.61-2.888a4.386,4.386,0,0,1-3.327,1.487H54.628V16.02a.826.826,0,0,0-.874-.874H45.261a3.551,3.551,0,0,0-3.59,3.59.776.776,0,0,0,.089.436H28.891A63.459,63.459,0,0,1,9.017,15.934h2.014a2.259,2.259,0,0,0,2.275-2.275,2.208,2.208,0,0,0-2.275-2.278H5.077v-.525h57.08a17.549,17.549,0,0,1,9.017,2.977H67.41a.875.875,0,1,0,0,1.751h5.427a1.993,1.993,0,0,1-.35,2.1" transform="translate(0 0.001)" fill="#0054a6"/>
      <path id="Path_86641" data-name="Path 86641" d="M10.089,3.869h4.816a.412.412,0,0,0,.436-.436.413.413,0,0,0-.436-.438H10.089a.415.415,0,0,0-.438.438.414.414,0,0,0,.438.436m8.842-2.1H32.5a.413.413,0,0,0,.436-.438A.414.414,0,0,0,32.5.892H18.932a.415.415,0,0,0-.438.438.414.414,0,0,0,.438.438" transform="translate(11.183 1.035)" fill="#ffc20e"/>
    </g>
  </g>
</svg>
