<svg xmlns="http://www.w3.org/2000/svg" xmlns:xlink="http://www.w3.org/1999/xlink" width="57.295" height="38.231" viewBox="0 0 57.295 38.231">
  <defs>
    <clipPath id="clip-path">
      <rect id="Rectangle_2930" data-name="Rectangle 2930" width="57.295" height="38.231" fill="none"/>
    </clipPath>
  </defs>
  <g id="Group_41521" data-name="Group 41521" clip-path="url(#clip-path)">
    <path id="Path_86619" data-name="Path 86619" d="M.841,20.675H2.173v-5.15a.839.839,0,0,1,.841-.841h.672V7.365a.84.84,0,0,1,.841-.837H7.883V1.678H6.9A.839.839,0,0,1,6.9,0h3.639a.839.839,0,1,1,0,1.678H9.561v4.85h1.976a.839.839,0,0,1,0,1.678H5.364v6.478H12.08V12.666a.842.842,0,0,1,.656-.821l4.809-1.479V8.206H15.336a.839.839,0,0,1,0-1.678h3.049a.837.837,0,0,1,.837.837v3.617a.839.839,0,0,1-.595.8l-4.872,1.5v1.4h.677a.841.841,0,0,1,.841.841v5.15h2.575V14.7a.84.84,0,0,1,.841-.841H46.207a.841.841,0,0,1,0,1.681H43.063v5.136H53.149V15.539H50.007a.841.841,0,0,1,0-1.681H53.99a.839.839,0,0,1,.837.841v5.976h1.628a.842.842,0,0,1,.8,1.108,23.935,23.935,0,0,1-5.068,9.138c-1.958,2.141-4.337,3.708-6.938,3.708H6.2a.835.835,0,0,1-.8-.6q-1.48-3.935-2.959-7.87H.841A.842.842,0,0,1,0,25.315v-3.8A.842.842,0,0,1,.841,20.675ZM6.775,32.951h38.47c2.062,0,4.031-1.336,5.7-3.159a20.57,20.57,0,0,0,2.32-3.118l.055-.085L54.2,25a20.913,20.913,0,0,0,1.132-2.643H1.678v2.125H3.014a.845.845,0,0,1,.783.543m27.5-4.346h10.09V15.539H31.295Zm-11.768,0h10.09V15.539H19.527Zm-15.676,0h9.741V16.364H3.851Z" transform="translate(0 -0.002)" fill="#0054a6"/>
    <path id="Path_86620" data-name="Path 86620" d="M6.675,8.051A.839.839,0,0,1,5,8.051V6.928a.839.839,0,1,1,1.678,0Z" transform="translate(3.035 3.696)" fill="#ffc20e"/>
    <path id="Path_86621" data-name="Path 86621" d="M4.032,12.677a.839.839,0,1,1,0-1.678H5.155a.839.839,0,1,1,0,1.678Z" transform="translate(1.938 6.68)" fill="#ffc20e"/>
    <path id="Path_86622" data-name="Path 86622" d="M6.755,12.677a.839.839,0,0,1,0-1.678H7.879a.839.839,0,0,1,0,1.678Z" transform="translate(3.595 6.68)" fill="#ffc20e"/>
    <path id="Path_86623" data-name="Path 86623" d="M4.219,16.906a.839.839,0,1,1,0-1.678H28.8a.839.839,0,0,1,0,1.678Z" transform="translate(2.052 9.249)" fill="#0054a6"/>
    <path id="Path_86624" data-name="Path 86624" d="M3.621,19.947H29.757a1.074,1.074,0,0,0,.674-.3l3.5-2.418h7.5a.84.84,0,0,0,0-1.675h-7.6a.883.883,0,0,0-.424.029.871.871,0,0,0-.262.135l-3.663,2.548H2.989Z" transform="translate(1.815 9.44)" fill="#ffc20e"/>
    <path id="Path_86625" data-name="Path 86625" d="M36.781,15.55H29.5a.882.882,0,0,0-.809.677.9.9,0,0,0,.809,1h6.32Z" transform="translate(17.419 9.444)" fill="#ffc20e"/>
  </g>
</svg>
