<svg id="Group_41524" data-name="Group 41524" xmlns="http://www.w3.org/2000/svg" xmlns:xlink="http://www.w3.org/1999/xlink" width="57.689" height="30.592" viewBox="0 0 57.689 30.592">
  <defs>
    <clipPath id="clip-path">
      <rect id="Rectangle_2931" data-name="Rectangle 2931" width="57.689" height="30.592" fill="none"/>
    </clipPath>
  </defs>
  <g id="Group_41523" data-name="Group 41523" clip-path="url(#clip-path)">
    <path id="Path_86626" data-name="Path 86626" d="M89.068,224.447h-.009a.85.85,0,1,0,.009,0" transform="translate(-78.278 -199.157)" fill="#ffc20e"/>
    <path id="Path_86627" data-name="Path 86627" d="M153.2,224.447h-.009a.85.85,0,1,0,.009,0" transform="translate(-135.181 -199.157)" fill="#ffc20e"/>
    <path id="Path_86628" data-name="Path 86628" d="M417.729,224.447h-.009a.85.85,0,1,0,.009,0" transform="translate(-369.907 -199.157)" fill="#ffc20e"/>
    <path id="Path_86629" data-name="Path 86629" d="M56.913,15.073l-1.136-1.136L53.488,7.069a.845.845,0,0,0-.256-1.65H45.045V1.748A1.75,1.75,0,0,0,43.3,0H1.748A1.75,1.75,0,0,0,0,1.748V21.619a1.75,1.75,0,0,0,1.748,1.748H2.71v1.864A1.75,1.75,0,0,0,4.458,26.98H6.4a4.455,4.455,0,0,0,7.989,1.762,4.455,4.455,0,0,0,7.989-1.762H43.436a4.458,4.458,0,0,0,8.834-.845c0-.019,0-.038,0-.058h3.673a1.75,1.75,0,0,0,1.748-1.748V16.947a2.633,2.633,0,0,0-.777-1.875M6.4,25.29H4.458a.058.058,0,0,1-.058-.058V23.367h2.89A4.441,4.441,0,0,0,6.4,25.29M10.78,28.9a2.768,2.768,0,0,1-.017-5.535H10.8A2.768,2.768,0,0,1,10.78,28.9m7.226,0a2.768,2.768,0,0,1-.017-5.535h.035a2.768,2.768,0,0,1-.017,5.535m25.43-3.613H22.383a4.44,4.44,0,0,0-.886-1.922h16.38a.845.845,0,0,0,0-1.69H1.748a.058.058,0,0,1-.058-.058V1.748a.058.058,0,0,1,.058-.058H43.3a.058.058,0,0,1,.058.058V21.677H41.49a.845.845,0,1,0,0,1.69h2.831a4.439,4.439,0,0,0-.885,1.922M54.167,14.451H48.716a.058.058,0,0,1-.058-.058V10.722h4.266ZM47.812,28.9a2.768,2.768,0,0,1-.017-5.535h.023a2.768,2.768,0,0,1-.006,5.535M56,20.658v3.671a.058.058,0,0,1-.058.058H51.913a4.464,4.464,0,0,0-4.1-2.71H45.045V7.168h0a.058.058,0,0,1,.058-.058h6.617l.641,1.923H47.812a.845.845,0,0,0-.845.845v4.516a1.75,1.75,0,0,0,1.748,1.748h6.876l.127.127a.955.955,0,0,1,.282.68v2.02" fill="#0054a6"/>
    <path id="Path_86630" data-name="Path 86630" d="M69.038,160.322H32.909a.845.845,0,1,0,0,1.69H69.038a.845.845,0,1,0,0-1.69" transform="translate(-28.451 -142.258)" fill="#ffc20e"/>
    <path id="Path_86631" data-name="Path 86631" d="M482.783,168.339h-1.061a.852.852,0,0,0,0,1.69h1.061Z" transform="translate(-426.783 -149.371)" fill="#ffc20e"/>
  </g>
</svg>
