<svg xmlns="http://www.w3.org/2000/svg" xmlns:xlink="http://www.w3.org/1999/xlink" width="47.582" height="45.28" viewBox="0 0 47.582 45.28"><defs><style>.a{fill:none;}.b{clip-path:url(#a);}.c{fill:#0054a6;}.d{fill:#ffc20e;}</style><clipPath id="a"><rect class="a" width="47.582" height="45.28"/></clipPath></defs><g transform="translate(0 0)"><g class="b" transform="translate(0 0)"><path class="c" d="M47.356,5.9a.927.927,0,0,0-1.243-.414l-.985.493c.087-.29.134-.5.144-.513a4.353,4.353,0,0,0-.983-4.406c-1.14-1.14-2.821-1.342-4.994-.6A24.318,24.318,0,0,0,33.235,3.9a22.048,22.048,0,0,0-7.168-2.618,22.391,22.391,0,0,0-6.75-.159.927.927,0,1,0,.236,1.839,20.444,20.444,0,0,1,5.425.027v.4a2.607,2.607,0,0,0,.76,1.833l1.909,1.909c.61.61-.223,1.194-.485,1.716-2.646,2.346-5.657,5.207-9.151,8.7q-2.021,2.021-3.765,3.831V20.74a2.513,2.513,0,0,0-.742-1.791L8.658,14.1a.666.666,0,0,1-.2-.479v-5.5a20.356,20.356,0,0,1,3.784-2.741.927.927,0,1,0-.809-1.668,1.039,1.039,0,0,0-.1.056C4.859,7.4.017,14.671.017,22.238c-.017.3-.017.589-.017.871A22.032,22.032,0,0,0,3.155,34.522,19.984,19.984,0,0,0,.921,38.838c-.744,2.172-.541,3.854.6,4.994,1.855,1.855,4.523,1.179,6.56.047a.927.927,0,0,0-.9-1.621c-1.27.705-3.137,1.469-4.349.267-.984-.984-.463-3.186,1.453-6.309a22.489,22.489,0,0,0,2.209,2.57A22.166,22.166,0,1,0,34.917,4.978c4.055-2.839,6.9-3.765,8.062-2.606A2.575,2.575,0,0,1,43.477,5s-.123.474-.3.973l-.916-1.35a.927.927,0,1,0-1.534,1.041L42.6,8.415a.935.935,0,0,0,1.182.308l3.161-1.582A.925.925,0,0,0,47.356,5.9h0M34.125,6.69a20.328,20.328,0,0,1,8.132,19.42.74.74,0,0,1-.365-.2l-2.218-2.218a2.58,2.58,0,0,0-1.833-.76h-2.2a.739.739,0,0,1-.738-.737V19.9a2.606,2.606,0,0,0-.758-1.833l-5.189-5.19a.74.74,0,0,1-.215-.521v-2.35c0-.029,0-.06,0-.089C30.41,8.451,31.929,7.2,33.325,6.139q.409.266.8.551m-5.169-.868L27.046,3.911a.74.74,0,0,1-.215-.521.2.2,0,0,1,0-.056,20.25,20.25,0,0,1,4.78,1.789q-.983.767-2.047,1.653a2.581,2.581,0,0,0-.608-.955M14.926,26.106h4.894a.68.68,0,0,1,.68.68V33.1a.684.684,0,0,1-.2.479l-7.4,7.4a.216.216,0,0,1-.369-.154V33.561a2.517,2.517,0,0,0-.741-1.791L9.416,29.4c1.086-1.268,2.3-2.626,3.664-4.091a2.529,2.529,0,0,0,1.845.8M12.194,20.26a.666.666,0,0,1,.2.479v2.592q-1.977,2.1-3.578,3.939V23.879a2.538,2.538,0,0,0-2.537-2.537H1.929A20.276,20.276,0,0,1,6.6,10.048v3.568a2.511,2.511,0,0,0,.741,1.8ZM1.855,23.2H6.276a.682.682,0,0,1,.68.68v4.631a2.525,2.525,0,0,0,.124.784c-.951,1.146-1.793,2.219-2.537,3.231l-.222.3A20.212,20.212,0,0,1,1.853,23.2Zm3.521,11.35q.314-.453.668-.925.971-1.322,2.183-2.8l2.258,2.257a.67.67,0,0,1,.2.486v6.3a20.558,20.558,0,0,1-5.306-5.316m9.179,7.4,7.059-7.059a2.549,2.549,0,0,0,.742-1.791V26.784a2.538,2.538,0,0,0-2.537-2.537H14.926a.679.679,0,0,1-.567-.306c1.491-1.568,3.134-3.255,4.963-5.083,2.821-2.823,5.322-5.228,7.566-7.274v.77a2.607,2.607,0,0,0,.76,1.833l5.187,5.189a.743.743,0,0,1,.215.522v2.3a2.6,2.6,0,0,0,2.593,2.592h2.2a.742.742,0,0,1,.522.216l2.218,2.218a2.592,2.592,0,0,0,1.321.712A20.17,20.17,0,0,1,40.888,31a3.082,3.082,0,0,0-.47-.036H35.994a3.21,3.21,0,0,0-2.285.945L32.425,33.2a3.261,3.261,0,0,0,0,4.568L34.161,39.5a20.362,20.362,0,0,1-19.607,2.446m25.236-8.725a20.705,20.705,0,0,1-3.151,4.139c-.328.334-.668.654-1.02.965L33.75,36.46a1.392,1.392,0,0,1,0-1.948l1.285-1.285a1.384,1.384,0,0,1,.973-.4h4.016c-.088.127-.163.263-.24.4Z" transform="translate(0 0.007)"/><path class="d" d="M11.04,2.773a.926.926,0,1,0,.5-1.211.928.928,0,0,0-.5,1.211" transform="translate(3.678 0.5)"/><path class="d" d="M43.067,5.979c.644-2.134.072-2.893-.127-3.108C41.847,1.688,38.567,2.4,34.8,4.984L33.21,6.145,28.626,9.926,26.772,11.59,14.243,23.948l-1.278,1.365L9.3,29.4l-1.19,1.421L5.261,34.554,4.17,36.221A7.9,7.9,0,0,0,2.491,40.7a2.2,2.2,0,0,0,.4,1.532,3,3,0,0,0,2.484.686c1.25-.195,1.791-1.021,2.488-.7a.921.921,0,0,1,.462,1.309c-.222.475-.736.673-1.5.912a10.713,10.713,0,0,1-2.557.65,4.274,4.274,0,0,1-3.068-1.47,4.035,4.035,0,0,1-.8-2.063c-.316-2.327.977-4.409,2.649-7.026.47-.736.887-1.318,1.166-1.694L6.964,29.3,8.7,27.276l3.578-3.939,1.856-1.947c1.879-1.949,3.617-3.7,5.175-5.234,3.159-3.111,2.819-2.629,5.4-5.175a44.3,44.3,0,0,1,3.388-3.106c.184-.15.485-.389,1.358-1.092S31.022,5.513,31.5,5.13l1.624-1.22c.674-.593,4.9-4.234,8.658-3.886a4.052,4.052,0,0,1,2.584,1,4.075,4.075,0,0,1,1.1,2.748,4.687,4.687,0,0,1-.45,2.21,1.931,1.931,0,0,1,1.582-.6,1.092,1.092,0,0,1,.745.434,1.2,1.2,0,0,1,0,1.044c-.266.582-.824.629-2.148,1.215-1.554.686-1.665,1.009-2.152.895-.41-.1-.374-.334-1.577-1.875C40.754,6.19,40.4,5.838,40.4,5.221a1.139,1.139,0,0,1,.342-.916,1.174,1.174,0,0,1,1.044-.064c.983.331,1.256,1.6,1.285,1.739" transform="translate(0.115 0.001)"/></g></g></svg>